<svg id="Layer_1" data-name="Layer 1" xmlns="http://www.w3.org/2000/svg" viewBox="0 0 600 600">
    <defs>
        <style>
            .cls-1 {
                fill: #570df8;
            }

            .cls-2 {
                fill: #07312d;
            }

            .cls-3 {
                fill: #1dcdbc;
            }

            .cls-4 {
                fill: #cc009c;
            }
        </style>
    </defs>
    <path class="cls-1"
        d="M510.37,333.81A165,165,0,0,1,215.73,435.9,172.94,172.94,0,0,0,390.8,387.69c8.93-9.51,16.53-20.52,20.6-32.91,8.46-25.73.26-54.78-19.86-72.74a70.1,70.1,0,0,0-7.34-5.72,69.1,69.1,0,0,0-38.83-11.87c-20.66,0-41.77,9.64-54.25,26.33-3.82,5.11-6.79,10.83-10.87,15.73C271.5,317,257.78,323,244.21,323c-22.07,0-42.74-16.09-46.93-38.05a47,47,0,0,1,1.5-24.9c2.56-7.38,6.66-14.14,11.16-20.54a167.33,167.33,0,0,1,60.48-52.72,164.86,164.86,0,0,1,65.31-17.69q4.78-.28,9.64-.28h1.18q6.78,0,13.43.63,4.36.38,8.66,1,6.35.9,12.52,2.27,7.35,1.62,14.45,3.89A165.08,165.08,0,0,1,510.37,333.81Z" />
    <path class="cls-2"
        d="M207.63,433.32l-1.41,2.45Q193,459,179.73,482.2l-7.89,13.87c-3.84,6.75-7.71,13.55-12.63,19.58a44.15,44.15,0,0,1-17.93,13.08A48,48,0,0,1,75.3,482a43.93,43.93,0,0,1,2.27-12.39c2.6-7.6,7.34-14.17,11.16-21.16,2.92-5.32,6-10.54,9.08-15.8q9.48-16.35,19-32.69,6-10.38,12.11-20.75a8.17,8.17,0,0,0,.75-1.28,168.87,168.87,0,0,0,73.69,53.87Q205.49,432.59,207.63,433.32Z" />
    <path class="cls-3"
        d="M406.73,333.81c0,15.19-6.32,29.31-15.63,41.08-16.8,21.22-40.37,38-65.39,48.06a166.15,166.15,0,0,1-106.14,5.69c-2.64-.73-5.26-1.54-7.84-2.41-1.34-.45-2.68-.91-4-1.4q-6-2.19-11.83-4.84a161,161,0,0,1-45.48-31.12l0,0a158.74,158.74,0,0,1-16.29-18.58A151.58,151.58,0,0,1,129,195.43a2.7,2.7,0,0,0,.22-.33,140,140,0,0,1,197.94-32.84,171.82,171.82,0,0,0-98.92,44.89A173.64,173.64,0,0,0,199,242.47a54.5,54.5,0,0,0-5.53,9.51,55.44,55.44,0,0,0-5,23c0,.33,0,.66,0,1a53.21,53.21,0,0,0,.36,5.39c2.68,22.58,19.79,43,42.41,47.77,17.56,3.68,37.38-.28,50.49-13,7.6-7.4,12.54-17.11,19.73-24.9a60,60,0,0,1,42.76-18.78h1.11a61.35,61.35,0,0,1,61.36,61.36Z" />
    <path class="cls-4"
        d="M524.74,129.25a62,62,0,0,1-.43,7.32,58.06,58.06,0,0,1-1.85,9.14c-2.9,10-8.41,18.94-13.88,27.73-4.45,7.13-8.39,14.74-12.61,22l-17,29.26a172.48,172.48,0,0,0-92.9-58.59c-4.41-1.07-8.9-2-13.44-2.69l3.7-6.41q10-17.42,20-34.8c3.51-6.1,6.85-12.24,10.35-18.37a87.65,87.65,0,0,1,13.1-18,61.07,61.07,0,0,1,43.45-18.12,61.48,61.48,0,0,1,61.49,61.5Z" />
</svg>